<?xml version="1.0" encoding="UTF-8"?>
<svg id="Capa_2" data-name="Capa 2" xmlns="http://www.w3.org/2000/svg" viewBox="0 0 40.61 38">
  <defs>
    <style>
      .cls-1 {
        stroke-linecap: round;
      }

      .cls-1, .cls-2 {
        fill: none;
        stroke: #29a829;
        stroke-linejoin: round;
        stroke-width: 3px;
      }
    </style>
  </defs>
  <g id="livetype">
    <g>
      <path class="cls-2" d="M6.2,36.5h4.7v-4.7h14.1v4.7h4.7l3.64-12.11,5.76-1.94V14.17h-2.35L28.53,5.94c0-.78,.05-1.54,.15-2.26s.26-1.45,.49-2.18c-1.14,.31-2.13,.86-2.97,1.64-.85,.78-1.5,1.71-1.95,2.8H9.85c-2.13,0-4.21,.77-5.76,2.23-1.73,1.64-2.59,3.64-2.59,5.99,0,3.84,.53,7.59,1.59,11.25s2.1,7.36,3.11,11.08Z"/>
      <line class="cls-1" x1="10.93" y1="12.57" x2="19.86" y2="12.57"/>
    </g>
  </g>
</svg>