<?xml version="1.0" encoding="UTF-8"?>
<svg id="Capa_2" data-name="Capa 2" xmlns="http://www.w3.org/2000/svg" viewBox="0 0 39.09 38">
  <defs>
    <style>
      .cls-1 {
        fill: none;
        stroke: #a01a57;
        stroke-linecap: round;
        stroke-linejoin: round;
        stroke-width: 3px;
      }
    </style>
  </defs>
  <g id="livetype">
    <path class="cls-1" d="M21.51,2.73c-.36-.75-1.13-1.23-1.97-1.23s-1.6,.48-1.97,1.23l-4.4,9.04-9.82,1.45c-.82,.12-1.5,.7-1.76,1.48s-.05,1.65,.54,2.24l7.12,7.05-1.68,9.96c-.14,.82,.21,1.65,.88,2.14s1.57,.55,2.31,.16l8.77-4.68,8.77,4.68c.74,.39,1.63,.33,2.31-.16s1.02-1.32,.88-2.14l-1.69-9.96,7.12-7.05c.59-.58,.8-1.45,.54-2.24s-.94-1.36-1.76-1.48l-9.82-1.45L21.51,2.73Z"/>
  </g>
</svg>