<?xml version="1.0" encoding="UTF-8"?>
<svg id="Capa_2" data-name="Capa 2" xmlns="http://www.w3.org/2000/svg" viewBox="0 0 53.01 38">
  <defs>
    <style>
      .cls-1 {
        fill: none;
        stroke: orange;
        stroke-linecap: round;
        stroke-linejoin: round;
        stroke-width: 3px;
      }
    </style>
  </defs>
  <g id="livetype">
    <g>
      <polyline class="cls-1" points="34.01 11.15 34.01 19.41 40.59 25.98"/>
      <path class="cls-1" d="M1.5,35.41s13.6,.55,15.01-16.41c.2-2.41,.46-4.7,1.38-6.83,.92-2.13,2.17-3.98,3.74-5.56,1.57-1.58,3.43-2.82,5.56-3.74,2.13-.92,4.4-1.38,6.82-1.38s4.7,.46,6.83,1.38c2.13,.92,3.98,2.17,5.56,3.74,1.58,1.57,2.82,3.43,3.74,5.56,.92,2.13,1.38,4.4,1.38,6.82s-.46,4.7-1.38,6.83c-.92,2.13-2.17,3.98-3.74,5.56-1.57,1.58-3.43,2.82-5.56,3.74-2.13,.92-4.4,1.38-6.82,1.38"/>
    </g>
  </g>
</svg>